<svg height="512" viewBox="0 0 64 64" width="512" xmlns="http://www.w3.org/2000/svg"><g id="flat"><path d="m56 27h-48a23.793 23.793 0 0 1 1.31-7.81 17.334 17.334 0 0 1 .73-1.85 23.719 23.719 0 0 1 4.3-6.59c.45-.49.93-.97 1.42-1.41a23.668 23.668 0 0 1 6.24-4.15 18.277 18.277 0 0 1 1.84-.76 23.6 23.6 0 0 1 7.16-1.41c.33-.01.66-.02 1-.02s.67.01 1 .02a23.6 23.6 0 0 1 7.16 1.41 19.943 19.943 0 0 1 1.85.76 23.779 23.779 0 0 1 6.23 4.15c.49.44.97.92 1.42 1.41a23.719 23.719 0 0 1 4.3 6.59 17.334 17.334 0 0 1 .73 1.85 23.793 23.793 0 0 1 1.31 7.81z" fill="#50b4f8"/><path d="m32 10a17 17 0 0 0 -17 17h34a17 17 0 0 0 -17-17z" fill="#4f97d5"/><path d="m32 17a10 10 0 0 0 -10 10h20a10 10 0 0 0 -10-10z" fill="#87cee9"/><path d="m54.69 19.19-19.95 7.81-2.38.93h-.72l-2.38-.93-19.95-7.81a17.334 17.334 0 0 1 .73-1.85l17.87 6.99-13.57-13.58c.45-.49.93-.97 1.42-1.41l13.43 13.44-7.19-17.59a18.277 18.277 0 0 1 1.84-.76l7.16 17.48v-18.89c.33-.01.66-.02 1-.02s.67.01 1 .02v18.89l7.16-17.48a19.943 19.943 0 0 1 1.85.76l-7.2 17.59 13.43-13.44c.49.44.97.92 1.42 1.41l-13.57 13.58 17.87-6.99a17.334 17.334 0 0 1 .73 1.85z" fill="#2d75bb"/><path d="m3 27h58v8h-58z" fill="#d3843d"/><path d="m5 35h54v26h-54z" fill="#f9bb4b"/><path d="m22 45h20v10h-20z" fill="#66342e"/><path d="m22 55h20v6h-20z" fill="#d3843d"/><path d="m29 49a3 3 0 0 1 3 3v3a0 0 0 0 1 0 0h-6a0 0 0 0 1 0 0v-3a3 3 0 0 1 3-3z" fill="#50b4f8"/><path d="m35 49a3 3 0 0 1 3 3v3a0 0 0 0 1 0 0h-6a0 0 0 0 1 0 0v-3a3 3 0 0 1 3-3z" fill="#4f97d5"/><path d="m5 45h12v16h-12z" fill="#dd3e46"/><path d="m10 45h2v16h-2z" fill="#f98c96"/><path d="m47 45h12v16h-12z" fill="#dd3e46"/><path d="m52 45h2v16h-2z" fill="#f98c96"/><g fill="#fcf05a"><path d="m7 30h2v2h-2z"/><path d="m13 30h2v2h-2z"/><path d="m19 30h2v2h-2z"/><path d="m25 30h2v2h-2z"/><path d="m37 30h2v2h-2z"/><path d="m43 30h2v2h-2z"/><path d="m49 30h2v2h-2z"/><path d="m55 30h2v2h-2z"/><path d="m31 30h2v2h-2z"/></g><path d="m30 35h4v6h-4z" fill="#dd3e46"/><path d="m34 35h4v6h-4z" fill="#f98c96"/><path d="m38 35h4v6h-4z" fill="#dd3e46"/><path d="m26 35h4v6h-4z" fill="#f98c96"/><path d="m22 35h4v6h-4z" fill="#dd3e46"/></g></svg>