<svg height="512pt" viewBox="-18 0 512 512.001" width="512pt" xmlns="http://www.w3.org/2000/svg"><path d="m342.566406 61.726562c0 13.9375-11.300781 25.234376-25.234375 25.234376-13.9375 0-25.234375-11.296876-25.234375-25.234376 0-13.933593 11.296875-25.234374 25.234375-25.234374 13.933594 0 25.234375 11.300781 25.234375 25.234374zm0 0" fill="#f7b594"/><path d="m323.421875 61.726562c0-8.015624 3.742187-15.152343 9.574219-19.777343-4.304688-3.414063-9.746094-5.457031-15.664063-5.457031-13.933593 0-25.234375 11.296874-25.234375 25.234374 0 13.933594 11.300782 25.234376 25.234375 25.234376 5.917969 0 11.359375-2.046876 15.664063-5.457032-5.832032-4.621094-9.574219-11.761718-9.574219-19.777344zm0 0" fill="#f0a479"/><path d="m184.5 61.726562c0 13.9375-11.296875 25.234376-25.230469 25.234376-13.9375 0-25.234375-11.296876-25.234375-25.234376 0-13.933593 11.296875-25.234374 25.234375-25.234374 13.933594 0 25.230469 11.300781 25.230469 25.234374zm0 0" fill="#f7b594"/><path d="m165.359375 61.726562c0-8.015624 3.742187-15.152343 9.570313-19.777343-4.300782-3.414063-9.742188-5.457031-15.660157-5.457031-13.9375 0-25.234375 11.296874-25.234375 25.234374 0 13.933594 11.296875 25.234376 25.234375 25.234376 5.921875 0 11.359375-2.046876 15.660157-5.457032-5.828126-4.621094-9.570313-11.761718-9.570313-19.777344zm0 0" fill="#f0a479"/><path d="m317.332031 86.960938c-10.972656 0-23.046875 4.09375-30.675781 10.824218 2.132812 5.792969 3.304688 12.050782 3.304688 18.582032v50.910156c0 3.964844-3.214844 7.183594-7.179688 7.183594h72.039062c3.195313 0 5.785157-2.589844 5.785157-5.785157v-38.441406c0-23.898437-19.375-43.273437-43.273438-43.273437zm0 0" fill="#00aaf0"/><path d="m282.78125 174.460938h39.457031c.445313-2.328126.6875-4.726563.6875-7.183594v-50.910156c0-10.332032-1.867187-20.238282-5.273437-29.398438-.109375 0-.214844-.007812-.320313-.007812-10.976562 0-23.046875 4.09375-30.675781 10.824218 2.132812 5.792969 3.304688 12.050782 3.304688 18.582032v50.910156c0 3.964844-3.214844 7.183594-7.179688 7.183594zm0 0" fill="#059adb"/><path d="m186.640625 167.277344v-50.910156c0-6.53125 1.167969-12.789063 3.304687-18.582032-7.628906-6.730468-19.703124-10.824218-30.675781-10.824218-23.898437 0-43.273437 19.375-43.273437 43.273437v38.441406c0 3.191407 2.589844 5.785157 5.785156 5.785157h72.039062c-3.964843 0-7.179687-3.21875-7.179687-7.183594zm0 0" fill="#ffc850"/><path d="m146.902344 168.675781v-38.441406c0-18.632813 11.773437-34.507813 28.285156-40.605469-5.152344-1.71875-10.660156-2.667968-15.917969-2.667968-23.898437 0-43.273437 19.375-43.273437 43.273437v38.441406c0 3.191407 2.585937 5.785157 5.78125 5.785157h30.90625c-3.191406 0-5.78125-2.59375-5.78125-5.785157zm0 0" fill="#feb644"/><path d="m269.625 31.324219c0 17.300781-14.023438 31.324219-31.324219 31.324219s-31.324219-14.023438-31.324219-31.324219 14.023438-31.324219 31.324219-31.324219 31.324219 14.023438 31.324219 31.324219zm0 0" fill="#f7b594"/><path d="m238.300781 31.324219c0-11.59375 6.300781-21.707031 15.660157-27.121094-4.605469-2.667969-9.953126-4.203125-15.660157-4.203125-17.300781 0-31.324219 14.023438-31.324219 31.324219s14.023438 31.324219 31.324219 31.324219c5.707031 0 11.054688-1.535157 15.660157-4.199219-9.359376-5.417969-15.660157-15.53125-15.660157-27.125zm0 0" fill="#f0a479"/><path d="m238.300781 62.648438c-29.667969 0-53.71875 24.050781-53.71875 53.71875v50.910156c0 3.964844 3.210938 7.179687 7.179688 7.179687h93.078125c3.964844 0 7.179687-3.214843 7.179687-7.179687v-50.910156c0-29.667969-24.050781-53.71875-53.71875-53.71875zm0 0" fill="#d665d3"/><path d="m215.488281 167.277344v-50.910156c0-24.292969 16.132813-44.8125 38.265625-51.449219-4.894531-1.46875-10.078125-2.269531-15.453125-2.269531-29.667969 0-53.71875 24.050781-53.71875 53.71875v50.910156c0 3.964844 3.210938 7.183594 7.179688 7.183594h30.90625c-3.964844 0-7.179688-3.21875-7.179688-7.183594zm0 0" fill="#c64ac6"/><path d="m419.507812 204.003906c.871094 2.359375 1.0625 4.882813.589844 7.3125l6.128906-6.757812c2.332032-2.574219 3.617188-5.867188 3.617188-9.277344v-76.507812c0-4.671876 1.386719-9.03125 3.777344-12.722657-6.648438-5.863281-16.371094-8.09375-25.472656-4.996093-13.105469 4.460937-19.957032 18.273437-15.308594 30.84375zm0 0" fill="#f0a479"/><path d="m418.851562 131.898438c-4.070312-11.003907.675782-22.960938 10.714844-28.761719-6.230468-3.601563-14.027344-4.597657-21.417968-2.082031-13.105469 4.460937-19.957032 18.273437-15.308594 30.84375l26.667968 72.105468c.871094 2.359375 1.0625 4.882813.589844 7.3125l6.128906-6.757812c2.332032-2.570313 3.617188-5.867188 3.617188-9.277344v-33.660156zm0 0" fill="#e5966e"/><path d="m404.421875 316.316406 56.875-78.246094c9.9375-13.3125 15.304687-29.480468 15.304687-46.089843v-72.664063c0-13.542968-11.085937-24.953125-24.625-24.695312-13.125.246094-23.691406 10.964844-23.691406 24.152344v76.507812c0 3.410156-1.230468 6.703125-3.46875 9.277344l-27.648437 31.777344c-.644531.738281-1.867188.070312-1.5625-.867188 3.15625-9.589844.683593-20.558594-7.207031-27.84375-10.507813-9.699219-27.582032-8.84375-37.523438 1.433594l-75.132812 77.671875c-8.539063 8.828125-13.3125 20.628906-13.3125 32.914062v75.433594h113.820312c2.085938-27.609375 11.804688-56.242187 28.171875-78.761719zm0 0" fill="#f7b594"/><g fill="#f0a479"><path d="m293.335938 395.078125v-75.433594c0-12.285156 4.773437-24.085937 13.316406-32.914062l75.128906-77.671875c1.265625-1.304688 2.644531-2.457032 4.109375-3.453125-10.554687-7.488281-25.832031-6.039063-35.015625 3.453125l-75.128906 77.671875c-8.542969 8.828125-13.316406 20.632812-13.316406 32.914062v75.433594h113.820312zm0 0"/><path d="m332.386719 288.0625c0 1.925781.773437 3.839844 2.292969 5.25 2.902343 2.679688 7.421874 2.503906 10.105468-.394531l52.148438-56.394531c-.664063.398437-1.601563-.21875-1.328125-1.050782 1.933593-5.878906 1.742187-12.277344-.503907-18.023437l-60.816406 65.761719c-1.269531 1.375-1.898437 3.117187-1.898437 4.851562zm0 0"/><path d="m57.09375 204.003906c-.871094 2.359375-1.0625 4.882813-.59375 7.3125l-6.125-6.757812c-2.335938-2.574219-3.617188-5.867188-3.617188-9.277344v-76.507812c0-4.671876-1.386718-9.03125-3.777343-12.722657 6.648437-5.863281 16.367187-8.09375 25.472656-4.996093 13.105469 4.460937 19.957031 18.273437 15.308594 30.84375zm0 0"/></g><path d="m68.453125 101.054688c-9.105469-3.097657-18.824219-.867188-25.472656 4.996093 2.390625 3.695313 3.777343 8.050781 3.777343 12.722657v76.507812c0 3.410156 1.285157 6.707031 3.617188 9.277344l6.125 6.757812c-.46875-2.429687-.277344-4.953125.59375-7.3125l10.78125-29.148437v-56.082031c0-2.65625-.449219-5.210938-1.277344-7.601563-1.25-3.621094.441406-7.675781 3.9375-9.238281.023438-.011719.046875-.019532.070313-.03125-.695313-.308594-1.414063-.59375-2.152344-.847656zm0 0" fill="#e5966e"/><path d="m72.179688 316.316406-56.875-78.246094c-9.933594-13.3125-15.304688-29.476562-15.304688-46.089843v-72.664063c0-13.542968 11.082031-24.953125 24.625-24.695312 13.125.25 23.691406 10.96875 23.691406 24.152344v76.507812c0 3.410156 1.230469 6.703125 3.46875 9.277344l27.648438 31.777344c.644531.742187 1.867187.070312 1.5625-.863282-3.15625-9.589844-.683594-20.5625 7.207031-27.847656 10.503906-9.699219 27.582031-8.839844 37.523437 1.433594l75.132813 77.671875c8.539063 8.828125 13.3125 20.632812 13.3125 32.914062v75.4375h-113.820313c-2.085937-27.613281-11.804687-56.246093-28.171874-78.765625zm0 0" fill="#f7b594"/><path d="m103.089844 316.316406-56.878906-78.246094c-9.933594-13.3125-15.304688-29.476562-15.304688-46.089843v-72.664063c0-7.546875 3.445312-14.425781 8.835938-19-4.09375-3.460937-9.359376-5.585937-15.117188-5.695312-13.539062-.257813-24.625 11.152344-24.625 24.695312v72.664063c0 16.613281 5.367188 32.777343 15.304688 46.089843l56.875 78.25c16.367187 22.515626 26.085937 51.148438 28.171874 78.761719h30.90625c-2.085937-27.613281-11.800781-56.246093-28.167968-78.765625zm0 0" fill="#f0a479"/><path d="m144.214844 288.0625c0 1.925781-.773438 3.839844-2.296875 5.25-2.898438 2.679688-7.417969 2.503906-10.101563-.394531l-52.148437-56.394531c.664062.398437 1.601562-.21875 1.328125-1.050782-1.933594-5.878906-1.742188-12.277344.503906-18.023437l60.816406 65.761719c1.269532 1.375 1.898438 3.117187 1.898438 4.851562zm0 0" fill="#f0a479"/><path d="m238.324219 431.609375v69.484375c0 6.023438-4.882813 10.90625-10.910157 10.90625h-138.148437c-6.023437 0-10.90625-4.882812-10.90625-10.90625v-69.484375zm0 0" fill="#00aaf0"/><path d="m109.265625 501.09375v-69.484375h-30.90625v69.484375c0 6.023438 4.882813 10.90625 10.90625 10.90625h30.90625c-6.023437 0-10.90625-4.882812-10.90625-10.90625zm0 0" fill="#059adb"/><path d="m89.265625 393.019531h138.148437c6.027344 0 10.910157 4.882813 10.910157 10.90625v29.746094h-159.964844v-29.746094c0-6.023437 4.882813-10.90625 10.90625-10.90625zm0 0" fill="#e4eaf8"/><path d="m120.171875 393.019531h-30.90625c-6.023437 0-10.90625 4.882813-10.90625 10.90625v29.746094h30.90625v-29.746094c0-6.023437 4.882813-10.90625 10.90625-10.90625zm0 0" fill="#d8dce5"/><path d="m398.242188 431.609375v69.484375c0 6.023438-4.882813 10.90625-10.90625 10.90625h-138.152344c-6.023438 0-10.90625-4.882812-10.90625-10.90625v-69.484375zm0 0" fill="#00aaf0"/><path d="m269.1875 501.09375v-69.484375h-30.90625v69.484375c0 6.023438 4.882812 10.90625 10.90625 10.90625h30.90625c-6.023438 0-10.90625-4.882812-10.90625-10.90625zm0 0" fill="#059adb"/><path d="m249.183594 393.019531h138.152344c6.023437 0 10.90625 4.882813 10.90625 10.90625v29.746094h-159.960938v-29.746094c0-6.023437 4.882812-10.90625 10.902344-10.90625zm0 0" fill="#e4eaf8"/><path d="m280.09375 393.019531h-30.910156c-6.019532 0-10.90625 4.882813-10.90625 10.90625v29.746094h30.90625v-29.746094c.003906-6.023437 4.886718-10.90625 10.910156-10.90625zm0 0" fill="#d8dce5"/></svg>